<svg xmlns="http://www.w3.org/2000/svg" xmlns:xlink="http://www.w3.org/1999/xlink" width="213" height="59" viewBox="0 0 213 59">
  <defs>
    <clipPath id="clip-path">
      <rect id="Rectangle_1632" data-name="Rectangle 1632" width="213" height="59" transform="translate(141 44)" fill="#fff"/>
    </clipPath>
    <clipPath id="clip-path-2">
      <rect id="Rectangle_4366" data-name="Rectangle 4366" width="211" height="37.738" fill="none"/>
    </clipPath>
  </defs>
  <g id="Depo_Logo_Header" data-name="Depo Logo Header" transform="translate(-141 -44)" clip-path="url(#clip-path)">
    <rect id="Rectangle_1631" data-name="Rectangle 1631" width="213" height="59" transform="translate(141 44)" fill="none"/>
    <g id="Depo_Logo_2" data-name="Depo Logo 2" transform="translate(142 55)" clip-path="url(#clip-path-2)">
      <path id="Path_10558" data-name="Path 10558" d="M0,29.593V3.345c.115-.011.214-.029.312-.028,2.627.019,5.253.025,7.88.068a14.218,14.218,0,0,1,3.375.382,7.092,7.092,0,0,1,1.192.406,4.368,4.368,0,0,1,2.67,3.606,28.636,28.636,0,0,1,.2,3.241c.024,3.9.016,7.8.006,11.706a21.185,21.185,0,0,1-.207,3.241,4.637,4.637,0,0,1-.594,1.644,3.4,3.4,0,0,1-1.62,1.347,5.591,5.591,0,0,1-2.031.5c-1.247.061-2.5.12-3.744.132-2.321.021-4.642.006-6.963.006H0M6.773,7.815V25.145c.36-.047.688-.068,1.008-.135a1.075,1.075,0,0,0,.926-.982,13.7,13.7,0,0,0,.149-1.6q.017-6.366,0-12.732a5.051,5.051,0,0,0-.076-.874A1.093,1.093,0,0,0,8,7.917a2.871,2.871,0,0,0-1.228-.1" transform="translate(0 -2.788)" fill="#fe0000"/>
      <path id="Path_10559" data-name="Path 10559" d="M453.422,3.334c.127-.009.214-.02.3-.02,2.576.012,5.152.015,7.728.042a14.586,14.586,0,0,1,2.962.318,4.772,4.772,0,0,1,3.82,3.6,12.59,12.59,0,0,1,.264,5.235,2.845,2.845,0,0,1-1.9,2.389c-.435.168-.882.3-1.393.476.157.054.257.093.359.123a6.942,6.942,0,0,1,1.753.749,3.287,3.287,0,0,1,1.4,1.76,7.359,7.359,0,0,1,.392,2.367c.011,1.377.012,2.755-.015,4.132a8.267,8.267,0,0,1-.366,2.336,3.317,3.317,0,0,1-2.655,2.414,16.149,16.149,0,0,1-3.118.286c-3.048.027-6.1.033-9.144.046-.124,0-.248-.011-.392-.018Zm6.764,21.772a4.2,4.2,0,0,0,1.387-.213.875.875,0,0,0,.6-.639,3.859,3.859,0,0,0,.147-.862c.009-1.452,0-2.9-.018-4.356a2.623,2.623,0,0,0-.112-.6.658.658,0,0,0-.447-.483,4.129,4.129,0,0,0-1.56-.206Zm-.007-11.451c.4-.026.757-.026,1.108-.076.664-.1.891-.316.944-.993.071-.888.1-1.78.123-2.671a4.346,4.346,0,0,0-.117-1.023,1.158,1.158,0,0,0-1.195-1.07,1.843,1.843,0,0,0-.864.021Z" transform="translate(-381.114 -2.785)" fill="#fe0000"/>
      <path id="Path_10560" data-name="Path 10560" d="M687.561,29.689h-5.867l-3.456-11.711-.082.013V29.672a7.612,7.612,0,0,1-1.122.031c-.383.007-.765,0-1.148,0h-2.258l-1.112,0V3.455h5.639l3.712,11.575.079-.012c.054-.47.017-.943.023-1.415s0-.97,0-1.454V3.45h5.574c.085.277.106,25.767.017,26.239" transform="translate(-565.268 -2.9)" fill="#fe0000"/>
      <path id="Path_10561" data-name="Path 10561" d="M1234.194,17.9V29.547h-5.568c-.08-.277-.11-25.645-.03-26.225h5.61l3.7,11.549.085-.008c.023-1.274.007-2.55.01-3.824s0-2.552,0-3.827V3.366c.323-.087,5.211-.1,5.625-.021V29.5c-.275.092-4.972.131-5.887.045L1234.3,17.891Z" transform="translate(-1032.631 -2.767)" fill="#fe0000"/>
      <path id="Path_10562" data-name="Path 10562" d="M897.81,3.3h6.756v.51q0,9.4,0,18.792c0,.586.022,1.173.058,1.758a3.631,3.631,0,0,0,.143.787.708.708,0,0,0,.783.533.734.734,0,0,0,.788-.588,6.482,6.482,0,0,0,.133-1.06c.026-.6.027-1.2.027-1.8q0-9.2,0-18.409V3.346c.311-.083,6.218-.105,6.758-.03.005.138.016.286.016.433q0,5.416,0,10.831c0,2.309.011,4.618-.01,6.927a29.546,29.546,0,0,1-.14,3.018,5.792,5.792,0,0,1-3.789,4.961,9.641,9.641,0,0,1-4.4.6,9.394,9.394,0,0,1-3.98-1.124,5.512,5.512,0,0,1-2.919-3.912,15.189,15.189,0,0,1-.187-2.438c-.037-1.352-.041-2.7-.042-4.056q-.007-7.368,0-14.735V3.3" transform="translate(-754.635 -2.748)" fill="#fe0000"/>
      <path id="Path_10563" data-name="Path 10563" d="M1017.093,17.829V29.509h-5.56c-.088-.32-.1-25.856-.007-26.23h5.589c1.246,3.835,2.467,7.7,3.712,11.556.049,0,.064,0,.072,0a.069.069,0,0,0,.016-.034.167.167,0,0,0,.007-.037c0-.038,0-.076,0-.115q0-5.606,0-11.212a.428.428,0,0,1,.011-.075.352.352,0,0,1,.01-.037c.265-.08,5.032-.106,5.561-.03.072.273.1,25.7.02,26.215h-5.876l-3.451-11.7-.112.02" transform="translate(-850.163 -2.728)" fill="#fe0000"/>
      <path id="Path_10564" data-name="Path 10564" d="M318.338,13.64c0,1.824.017,3.647-.008,5.471a20.936,20.936,0,0,1-.172,2.555,6.132,6.132,0,0,1-3.834,5.008,8.314,8.314,0,0,1-2.816.654,10.034,10.034,0,0,1-4.652-.65,6.162,6.162,0,0,1-3.826-4.591,9.356,9.356,0,0,1-.187-1.707q-.076-2.122-.092-4.245-.02-3.194.006-6.389a34.122,34.122,0,0,1,.209-4.046,6.007,6.007,0,0,1,3.021-4.584,7.625,7.625,0,0,1,3.1-1.023,10.537,10.537,0,0,1,4.721.419A6.129,6.129,0,0,1,318,4.868a8.884,8.884,0,0,1,.267,1.964c.065,1.618.082,3.237.11,4.856.011.65,0,1.3,0,1.951h-.037m-8.808-.018h-.015c0,1.594,0,3.188,0,4.781,0,.931.007,1.862.039,2.792a8.858,8.858,0,0,0,.153,1.172.639.639,0,0,0,.4.484.917.917,0,0,0,1.329-.646,1.6,1.6,0,0,0,.052-.262c.045-.6.121-1.194.122-1.791q.018-6.579.01-13.159c0-.128,0-.256-.007-.382-.045-.494-.068-.993-.152-1.481a.783.783,0,0,0-.939-.689.832.832,0,0,0-.845.738,8.457,8.457,0,0,0-.137,1.4c-.013,2.346-.006,4.692-.006,7.038" transform="translate(-254.465 0)" fill="#fe0000"/>
      <path id="Path_10565" data-name="Path 10565" d="M792.336,16.72h-1.258V12.779h7.828V26.8c-.133.009-.245.022-.357.022q-1.741,0-3.483,0c-.357,0-.359,0-.475-.35-.134-.4-.263-.8-.4-1.2-.031-.092-.074-.181-.127-.311-.1.148-.183.26-.261.373a4.507,4.507,0,0,1-3.745,2.037,6.414,6.414,0,0,1-4.707-1.773,6.042,6.042,0,0,1-1.945-4c-.109-1.115-.154-2.24-.16-3.361q-.026-4.86.011-9.72a23.862,23.862,0,0,1,.267-3.429,5.09,5.09,0,0,1,1.6-2.97,7.4,7.4,0,0,1,4.63-2.044,11.182,11.182,0,0,1,4.28.378,7.473,7.473,0,0,1,3.351,2.128,4.7,4.7,0,0,1,1.092,2.036,21.171,21.171,0,0,1,.446,5.541c-.286.087-6.146.114-6.728.031-.007-.127-.017-.263-.019-.4-.019-1.212-.026-2.423-.06-3.634a5.841,5.841,0,0,0-.15-1.1.781.781,0,0,0-.819-.612.819.819,0,0,0-.9.5,4.487,4.487,0,0,0-.2,1.006c-.04.444-.04.892-.04,1.338q0,6.7.015,13.394a7.66,7.66,0,0,0,.167,1.514.837.837,0,0,0,.919.745.915.915,0,0,0,1-.714,7.38,7.38,0,0,0,.224-1.507c.035-1.262.019-2.525.022-3.788,0-.05-.01-.1-.024-.22" transform="translate(-658.333 -0.018)" fill="#fe0000"/>
      <path id="Path_10566" data-name="Path 10566" d="M1124.386,29.442l-.367-4.677c-.815-.011-1.611-.006-2.455,0-.125,1.584-.248,3.139-.372,4.707h-6.92c-.056-.316.635-5.7,1.063-8.721.413-2.914.767-5.837,1.147-8.756s.758-5.811,1.135-8.708c.287-.093,8.976-.132,9.752-.05.141.234,3.895,25.794,3.893,26.188-.267.078-6.315.1-6.876.021m-.556-9.343-.987-10.744c-.551,3.565-1.034,7.131-1.315,10.744Z" transform="translate(-936.575 -2.68)" fill="#fe0000"/>
      <path id="Path_10567" data-name="Path 10567" d="M574.792,29.637c-.293.081-6.521.087-6.886,0l-.365-4.646h-2.459q-.182,2.324-.363,4.632c-.292.093-6.576.109-6.991.015l3.417-26.2h9.742c.149.24,3.873,25.7,3.9,26.2M566.364,9.569l-.076.007c-.473,3.565-.961,7.129-1.24,10.747.8.023,1.546.012,2.3.011l-.989-10.765" transform="translate(-468.786 -2.892)" fill="#fe0000"/>
      <path id="Path_10568" data-name="Path 10568" d="M200.283,29.568V3.353a2.22,2.22,0,0,1,.273-.034c2.551.009,5.1.009,7.652.035a10.75,10.75,0,0,1,3.1.4,7.706,7.706,0,0,1,1.136.447,3.85,3.85,0,0,1,2.165,3.012,20.7,20.7,0,0,1,.221,2.626c.035,1.3.02,2.6,0,3.9a13.62,13.62,0,0,1-.151,1.636,3.661,3.661,0,0,1-2.614,3.136,8.763,8.763,0,0,1-2.7.457c-.612.015-1.224.006-1.837.008h-.459c-.055.9-.019,1.774-.025,2.647s0,1.76,0,2.64v5.3ZM207.06,7.819v6.64a2.127,2.127,0,0,0,1.079-.007,1.06,1.06,0,0,0,.907-.869,5.226,5.226,0,0,0,.141-.981q.028-1.511,0-3.022a4.19,4.19,0,0,0-.14-.9.971.971,0,0,0-.711-.733,3.109,3.109,0,0,0-1.277-.125" transform="translate(-168.344 -2.79)" fill="#fe0000"/>
      <path id="Path_10569" data-name="Path 10569" d="M114.3,3.464h11.247V8.652a8.759,8.759,0,0,1-1.084.022c-.383.006-.765,0-1.148,0h-2.235v5.037h4.12c.085.317.11,4.293.037,4.928-.137.01-.283.029-.429.029q-1.626,0-3.252,0h-.476v5.8h4.882c.083.316.1,4.738.033,5.183-.3.084-11.346.089-11.7,0Z" transform="translate(-96.071 -2.912)" fill="#fe0000"/>
      <path id="Path_10570" data-name="Path 10570" d="M301.963,194.117h2.6c.08.273.1,6.137.023,6.619H303c-.058-.78-.019-1.565-.026-2.348s0-1.58,0-2.366a.187.187,0,0,0-.049-.011c-.011,0-.029.008-.031.016-.406,1.564-.81,3.129-1.22,4.712h-1.511l-1.211-4.754-.085.013v4.74h-1.642v-6.578a16,16,0,0,1,2.687-.02l.971,3.824c.442-1.263.719-2.56,1.083-3.848" transform="translate(-249.824 -163.142)"/>
      <path id="Path_10571" data-name="Path 10571" d="M1115.8,197.271v3.481h-1.858c-.082-.258-.11-6.027-.023-6.636.139,0,.288,0,.437,0,.482.012.963.027,1.445.04.267.388.537.774.8,1.165.458.676.911,1.354,1.368,2.03a.875.875,0,0,0,.277.279v-3.509c.655-.01,1.272-.005,1.918,0v6.64h-1.911l-2.374-3.516-.08.027" transform="translate(-936.236 -163.159)"/>
      <path id="Path_10572" data-name="Path 10572" d="M793.974,197.2v3.475h-1.867c-.079-.264-.1-6.108-.019-6.637.408,0,.828.031,1.241-.008a.927.927,0,0,1,.983.511c.577.931,1.213,1.826,1.826,2.736a1.375,1.375,0,0,0,.258.3c.042-.581.037-1.158.038-1.735s0-1.168,0-1.775h1.9v6.607c-.105.011-.2.029-.3.03-.4,0-.792-.016-1.186.007a.644.644,0,0,1-.652-.337c-.632-.973-1.29-1.929-1.94-2.89-.068-.1-.144-.2-.216-.3l-.069.016" transform="translate(-665.729 -163.085)"/>
      <path id="Path_10573" data-name="Path 10573" d="M1209.2,197.232v3.483h-1.911v-6.6c.1-.011.2-.029.3-.03.408,0,.817.016,1.223-.008a.584.584,0,0,1,.589.306c.649.991,1.318,1.97,1.98,2.953a.732.732,0,0,0,.277.264v-3.515c.65,0,1.267,0,1.911,0v6.624a2.317,2.317,0,0,1-.277.033c-.446,0-.893-.011-1.338.007a.478.478,0,0,1-.463-.255c-.663-1-1.336-1.989-2.006-2.982-.068-.1-.144-.2-.216-.3l-.067.017" transform="translate(-1014.765 -163.124)"/>
      <path id="Path_10574" data-name="Path 10574" d="M613.616,197.232c.084.035.141.063.2.082a1.737,1.737,0,0,1,.447,2.982,2.176,2.176,0,0,1-1.175.4c-.442.047-.889.07-1.334.076-.841.011-1.682,0-2.523,0h-.4v-6.645c.13-.006.242-.017.354-.017,1.109,0,2.217-.006,3.326,0a4.171,4.171,0,0,1,.832.085,1.558,1.558,0,0,1,1.246,1.288,1.485,1.485,0,0,1-.8,1.627c-.052.03-.1.067-.171.114m-2.737,2.095c.452,0,.859,0,1.266,0a.96.96,0,0,0,.3-.066.591.591,0,0,0,.417-.616.562.562,0,0,0-.449-.588,7.17,7.17,0,0,0-1.531-.062Zm.008-3.846v1.26c.433-.019.841-.01,1.24-.064a.521.521,0,0,0,.477-.591.538.538,0,0,0-.486-.586,4.363,4.363,0,0,0-1.231-.019" transform="translate(-511.739 -163.157)"/>
      <path id="Path_10575" data-name="Path 10575" d="M969.444,194.121c.6,0,1.175,0,1.746,0,.179,0,.23.138.306.25q.824,1.22,1.645,2.442a5.323,5.323,0,0,0,.654.837c0-.384.006-.768.007-1.152s0-.765,0-1.148v-1.2h1.9v6.606c-.1.011-.2.029-.294.029-.408,0-.818-.021-1.224.009a.606.606,0,0,1-.614-.336c-.636-.97-1.291-1.928-1.939-2.889a.961.961,0,0,0-.279-.288v3.5c-.659.008-1.273.005-1.911,0Z" transform="translate(-814.845 -163.163)"/>
      <path id="Path_10576" data-name="Path 10576" d="M879.284,194.176a.8.8,0,0,1,.138-.029c1.3,0,2.6,0,3.9.011a1.777,1.777,0,0,1,1.309.531,1.559,1.559,0,0,1-.368,2.447c-.056.028-.108.062-.2.115.1.042.157.075.221.1a1.715,1.715,0,0,1,.671,2.741,1.523,1.523,0,0,1-.932.556,12.311,12.311,0,0,1-1.479.154c-.955.024-1.911.008-2.866.006-.124,0-.248-.011-.391-.018Zm2.06,5.145a.467.467,0,0,0,.1.037c.292,0,.585.013.877,0a2.266,2.266,0,0,0,.526-.065.61.61,0,0,0,.469-.654.6.6,0,0,0-.517-.576,8.617,8.617,0,0,0-1.458-.047Zm0-2.544c.456-.027.874-.025,1.283-.086a.514.514,0,0,0,.432-.585.534.534,0,0,0-.454-.572,5.419,5.419,0,0,0-1.26-.042Z" transform="translate(-739.063 -163.185)"/>
      <path id="Path_10577" data-name="Path 10577" d="M258.957,200.775c-.74,0-1.438,0-2.136,0-.166,0-.2-.133-.262-.241-.286-.527-.567-1.056-.852-1.583-.079-.146-.161-.29-.244-.433a.787.787,0,0,0-.906-.41v2.641H252.52v-6.6a2.288,2.288,0,0,1,.28-.033c1.135,0,2.271-.011,3.406.011a5.931,5.931,0,0,1,1.131.159,1.328,1.328,0,0,1,.792.567,1.911,1.911,0,0,1-.791,2.835c-.116.05-.237.089-.409.152a2.705,2.705,0,0,1,1.33,1.5c.188.376.386.748.576,1.123.044.087.072.181.123.313m-4.39-3.981a3.812,3.812,0,0,0,1.416-.086.581.581,0,0,0,.415-.614.552.552,0,0,0-.455-.577,5.19,5.19,0,0,0-1.377-.046Z" transform="translate(-212.25 -163.158)"/>
      <path id="Path_10578" data-name="Path 10578" d="M445.215,198.028c-.341.36-.664.684-.962,1.028a.6.6,0,0,0-.082.355c-.009.431,0,.862,0,1.32h-2.023v-6.624c.652-.024,1.308,0,2.011-.012.024.411.008.8.011,1.192s0,.787,0,1.246a2.709,2.709,0,0,0,.225-.2c.572-.668,1.147-1.334,1.71-2.01a.561.561,0,0,1,.485-.231c.7.013,1.4,0,2.1.006.073,0,.146.01.3.021l-2.379,2.475,2.5,4.13c-.132.016-.212.033-.293.034-.625,0-1.25-.008-1.874.007a.44.44,0,0,1-.47-.284c-.339-.7-.7-1.388-1.054-2.08-.057-.112-.119-.22-.2-.372" transform="translate(-371.635 -163.139)"/>
      <path id="Path_10579" data-name="Path 10579" d="M703.175,198.062h-2.229v2.65h-2.034V194.12a3.789,3.789,0,0,1,.967-.04c.33-.012.661,0,1.03,0,.064.764,0,1.512.039,2.253a10.657,10.657,0,0,0,2.2.028V194.1h2.038v6.613h-2.016Z" transform="translate(-587.456 -163.12)"/>
      <path id="Path_10580" data-name="Path 10580" d="M401.277,200.778c-.322-.6-.629-1.169-.938-1.74-.1-.19-.2-.382-.32-.565a.764.764,0,0,0-.891-.353v2.638h-1.975c-.08-.285-.1-6.124-.023-6.617a1.954,1.954,0,0,1,.212-.022c1.16,0,2.319-.01,3.479.011a5.611,5.611,0,0,1,1.092.155,1.358,1.358,0,0,1,.84.622,1.9,1.9,0,0,1-.848,2.793c-.105.044-.214.079-.361.132a3.928,3.928,0,0,1,.458.291,2.172,2.172,0,0,1,.358.395,5.2,5.2,0,0,1,.36.584c.233.438.456.882.681,1.325.05.1.089.2.139.314a.614.614,0,0,1-.13.035c-.7,0-1.4,0-2.133,0m-2.127-3.969a4.309,4.309,0,0,0,1.424-.1A.615.615,0,0,0,401,196.1a.571.571,0,0,0-.467-.576,5.137,5.137,0,0,0-1.38-.044Z" transform="translate(-333.758 -163.161)"/>
      <path id="Path_10581" data-name="Path 10581" d="M1020.467,195.548a1.162,1.162,0,0,0-1.271-.757,1.286,1.286,0,0,0-1.239,1.013,3.527,3.527,0,0,0,.029,2,1.408,1.408,0,0,0,1.764.891,7.65,7.65,0,0,0,.956-.347v-.666c-.222,0-.434-.007-.646-.008s-.431,0-.692,0c-.03-.463-.018-.9-.008-1.362h3.127c.01.109.028.208.028.307,0,.74,0,1.479,0,2.219a.412.412,0,0,1-.162.4,5.135,5.135,0,0,1-4.293.819,2.711,2.711,0,0,1-2.053-1.918,4.253,4.253,0,0,1-.047-2.6,2.883,2.883,0,0,1,2.4-2.145,6.158,6.158,0,0,1,2.171.007,2.253,2.253,0,0,1,1.882,1.782c-.638.162-1.274.248-1.943.364" transform="translate(-853.793 -162.476)"/>
      <path id="Path_10582" data-name="Path 10582" d="M124.669,194.226h2.019c.011.112.027.21.027.307,0,1.211.007,2.423,0,3.634a3.731,3.731,0,0,1-.1.832,2.451,2.451,0,0,1-2.238,1.937,6.241,6.241,0,0,1-2.019-.077,2.259,2.259,0,0,1-1.8-1.679,4.055,4.055,0,0,1-.165-1.053c-.02-1.211-.008-2.423-.007-3.634,0-.075.008-.15.013-.254h2.035v3.691c0,.128,0,.255,0,.383a1.125,1.125,0,0,0,1.726.964.956.956,0,0,0,.5-.772,4.333,4.333,0,0,0,.017-.5q0-1.664,0-3.328v-.455" transform="translate(-101.178 -163.253)"/>
      <path id="Path_10583" data-name="Path 10583" d="M1069.963,194.246h2a1.744,1.744,0,0,1,.029.224c0,1.275.007,2.549,0,3.823a2.735,2.735,0,0,1-.707,1.888,2.384,2.384,0,0,1-1.732.777,10.616,10.616,0,0,1-1.828-.074,2.38,2.38,0,0,1-2.01-2.2,2.507,2.507,0,0,1-.034-.342q-.008-1.988-.008-3.976a.491.491,0,0,1,.04-.125h1.98c.005.137.015.272.015.406,0,1.147,0,2.294,0,3.441a2.514,2.514,0,0,0,.035.494,1.031,1.031,0,0,0,1.177.85,1,1,0,0,0,1.017-.942,4.752,4.752,0,0,0,.025-.534q0-1.625,0-3.25Z" transform="translate(-895.727 -163.269)"/>
      <path id="Path_10584" data-name="Path 10584" d="M495.609,195.656h-3.371V196.7h3.124a12.47,12.47,0,0,1,.022,1.367h-3.151v1.281a6.143,6.143,0,0,0,1.134.036c.382.01.765,0,1.147,0h1.137a4.211,4.211,0,0,1,.025,1.5h-5.441c-.082-.3-.1-6.18-.018-6.621h5.392Z" transform="translate(-411.998 -163.281)"/>
      <path id="Path_10585" data-name="Path 10585" d="M216.007,194.046v1.381h-3.34a4.791,4.791,0,0,0-.065,1.062c1.069.02,2.106,0,3.16.014v1.356h-3.128v1.307h3.409a3.993,3.993,0,0,1,.025,1.5h-5.472v-6.582c.272-.079,4.483-.112,5.412-.038" transform="translate(-177.011 -163.066)"/>
      <path id="Path_10586" data-name="Path 10586" d="M82.347,195.366l-1.872.113c-.039-.1-.075-.188-.112-.279a1,1,0,0,0-1.345-.5.458.458,0,0,0-.283.42.378.378,0,0,0,.276.374c.252.086.511.155.767.227.38.107.762.206,1.141.316a3.573,3.573,0,0,1,.427.165,1.994,1.994,0,0,1,.4,3.466,2.745,2.745,0,0,1-.918.445,5,5,0,0,1-2.682-.043,2.176,2.176,0,0,1-1.524-2.119l1.874-.122c.045.146.08.278.126.406a1.152,1.152,0,0,0,1.584.6.635.635,0,0,0,.38-.576.585.585,0,0,0-.358-.546,7.094,7.094,0,0,0-.682-.242c-.53-.177-1.064-.345-1.591-.53a1.853,1.853,0,0,1-.362-.211,1.728,1.728,0,0,1,0-2.855,2.53,2.53,0,0,1,1.055-.423,5.428,5.428,0,0,1,2.164.057,1.952,1.952,0,0,1,1.541,1.852" transform="translate(-64.399 -162.537)"/>
      <path id="Path_10587" data-name="Path 10587" d="M745.288,194.226h2.25l2.457,6.62h-2.127l-.331-1.05h-2.315l-.333,1.054h-2.077l2.476-6.623m1.813,4.086-.684-2.26-.067,0-.684,2.256Z" transform="translate(-624.355 -163.253)"/>
      <path id="Path_10588" data-name="Path 10588" d="M656.733,200.889H654.6l-.336-1.066h-2.31l-.342,1.058h-2.074l2.475-6.621h2.254l2.462,6.629m-2.905-2.548-.667-2.232a16.709,16.709,0,0,0-.757,2.232Z" transform="translate(-545.959 -163.281)"/>
      <path id="Path_10589" data-name="Path 10589" d="M925.025,200.845,924.7,199.8h-2.311l-.35,1.064h-2.07l2.48-6.634h2.25l2.457,6.619Zm-2.2-2.519c.5.009.951.015,1.443,0l-.687-2.272-.067.006-.688,2.27" transform="translate(-773.26 -163.253)"/>
      <path id="Path_10590" data-name="Path 10590" d="M350.229,194.2h2.247l2.459,6.624a8.89,8.89,0,0,1-1.062.025c-.344.005-.687,0-1.056,0l-.342-1.079h-2.311l-.339,1.06H347.75l2.479-6.631m1.811,4.092-.684-2.265h-.065l-.686,2.264Z" transform="translate(-292.294 -163.233)"/>
      <path id="Path_10591" data-name="Path 10591" d="M1162.651,194.275l2.457,6.62c-.385.034-.722.015-1.057.018s-.687,0-1.063,0l-.343-1.076h-2.31l-.34,1.055h-2.074l2.474-6.617Zm-1.119,1.823-.069-.007-.688,2.259h1.431l-.673-2.251" transform="translate(-973.266 -163.294)"/>
      <path id="Path_10592" data-name="Path 10592" d="M168.674,194.109h.365c.956,0,1.912-.008,2.868,0a4.984,4.984,0,0,1,.984.1,1.608,1.608,0,0,1,1.27,1.19,2.58,2.58,0,0,1-.006,1.507,1.854,1.854,0,0,1-1.687,1.339c-.352.047-.711.043-1.068.056-.215.007-.431,0-.692,0v2.44h-2.035Zm2.044,2.795a2.26,2.26,0,0,0,1.106-.043.69.69,0,0,0,.455-.681.662.662,0,0,0-.494-.65,2.524,2.524,0,0,0-1.067-.027Z" transform="translate(-141.775 -163.152)"/>
      <path id="Path_10593" data-name="Path 10593" d="M535.289,194.264v1.612h-2.076v5.008h-2.029v-4.995h-2.074c-.025-.556-.02-1.08,0-1.625Z" transform="translate(-444.718 -163.284)"/>
    </g>
  </g>
</svg>
